<?xml version="1.0" standalone="no"?>
<!DOCTYPE svg PUBLIC "-//W3C//DTD SVG 20010904//EN"
 "http://www.w3.org/TR/2001/REC-SVG-20010904/DTD/svg10.dtd">
<svg version="1.0" xmlns="http://www.w3.org/2000/svg"
 width="48.000000pt" height="48.000000pt" viewBox="0 0 48.000000 48.000000"
 preserveAspectRatio="xMidYMid meet">

<g transform="translate(0.000000,48.000000) scale(0.100000,-0.100000)"
fill="#000000" stroke="none">
<path d="M142 450 c-12 -12 -22 -27 -22 -35 0 -8 -10 -21 -23 -30 -33 -21 -66
-85 -73 -141 -4 -27 -11 -57 -16 -66 -7 -14 4 -29 49 -73 74 -70 123 -90 205
-82 103 9 173 75 189 176 4 25 11 58 14 72 5 18 2 31 -10 40 -9 8 -33 31 -54
51 -42 40 -99 68 -140 68 -15 0 -34 9 -44 20 -22 26 -47 25 -75 0z m66 -34
c15 -8 44 -17 64 -21 36 -6 98 -47 98 -66 0 -5 -15 -9 -32 -9 -64 -1 -201 -43
-257 -79 -24 -15 -24 -15 -18 9 4 14 7 31 7 38 0 7 17 31 39 55 21 23 43 52
50 65 14 26 15 26 49 8z m219 -132 c3 -9 1 -25 -5 -35 -7 -10 -12 -33 -12 -49
0 -57 -49 -122 -101 -135 -24 -6 -28 -3 -39 30 -10 30 -10 42 1 62 16 29 3 56
-28 61 -32 5 -49 -23 -33 -56 7 -15 18 -46 25 -69 l13 -43 -31 0 c-39 1 -60
12 -121 67 -31 27 -46 48 -44 60 8 43 211 120 321 122 35 1 49 -3 54 -15z"/>
</g>
</svg>
